<?xml version="1.0" encoding="utf-8"?>
<!-- Generator: Adobe Illustrator 27.5.0, SVG Export Plug-In . SVG Version: 6.00 Build 0)  -->
<svg version="1.1" xmlns="http://www.w3.org/2000/svg" xmlns:xlink="http://www.w3.org/1999/xlink" x="0px" y="0px"
	 viewBox="0 0 3710 3710" style="enable-background:new 0 0 3710 3710;" xml:space="preserve">
<g id="Background">
	<g>
		<g>
			<rect style="fill:#FFFFFF;" width="3710" height="3710"/>
		</g>
	</g>
</g>
<g id="Illustration">
	<g>
		<path style="fill:#F4F7FA;" d="M1617.812,3187.317C905.749,3079.48,327.075,2406.239,432.207,1657.948
			c89.689-638.173,649.197-1134.811,1320.155-1181.709c48.584-3.405,97.728-4.458,147.328-3.019
			c374.303,10.812,706.87,160.527,952.837,387.081c244.809,225.467,403.86,527.037,432.82,843.421
			C3362.468,2545.493,2503.463,3321.446,1617.812,3187.317z"/>
		<path style="fill:#D8DEE8;" d="M2583.207,1649.399l-91.497-6.26c-4.934-42.824-13.873-85.553-26.508-127.77l81.879-40.63
			c22.984-11.406,32.21-39.47,20.617-62.666l-72.372-144.754c-11.552-23.098-39.485-32.592-62.404-21.221l-81.637,40.51
			c-25.927-35.289-54.433-67.886-85.368-97.322l50.041-75.844c14.073-21.325,8.162-50.144-13.196-64.363l-133.292-88.763
			c-21.278-14.167-49.918-8.424-63.987,12.828l-50.406,76.148c-39.147-17.145-79.669-30.859-121.118-40.895l5.73-91.398
			c1.595-25.434-17.681-47.363-43.043-48.991l-158.447-10.16c-25.309-1.623-47.167,17.638-48.823,43.03l-5.979,91.677
			c-41.614,4.703-83.151,13.25-124.215,25.506l-40.557-82.867c-11.163-22.801-38.624-32.137-61.351-20.861l-142.107,70.519
			c-22.726,11.277-32.161,38.922-21.066,61.756l40.642,83.652c-34.378,25.417-66.196,53.401-95.017,83.805l-76.787-51.953
			c-20.951-14.175-49.415-8.466-63.587,12.748l-88.727,132.815c-14.203,21.263-8.746,50.049,12.197,64.299l77.548,52.756
			c-17.012,38.857-30.735,79.137-40.918,120.408l-93.73-6.413c-25.274-1.73-47.267,17.653-49.127,43.3l-11.655,160.691
			c-1.868,25.743,17.151,48.06,42.486,49.829l94.091,6.579c4.285,41.975,12.37,83.936,24.06,125.488l-85.368,42.362
			c-22.919,11.372-32.51,39.49-21.42,62.816l69.497,146.181c11.136,23.425,38.805,33.18,61.789,21.774l85.618-42.486
			c25.017,35.265,52.631,67.94,82.667,97.615l-53.181,80.341c-14.345,21.664-8.758,51.128,12.482,65.814l133.088,91.995
			c21.324,14.74,50.252,9.066,64.594-12.678l53.131-80.518c38.859,17.767,79.177,32.043,120.476,42.75l-6.325,96.96
			c-1.714,26.253,17.758,49.095,43.489,51.007l161.114,11.969c25.793,1.92,48.047-17.856,49.691-44.153l6.029-96.148
			c42.175-4.298,84.292-12.599,125.952-24.63l42.117,86.693c11.528,23.731,39.677,33.657,62.861,22.152l144.985-71.946
			c23.184-11.504,32.568-40.054,20.97-63.751l-42.032-85.88c35.192-25.86,67.664-54.441,97.058-85.499l77.998,53.063
			c21.658,14.733,50.763,9.023,65.001-12.759l88.934-136.052c14.207-21.731,8.151-51.229-13.511-65.884l-77.652-52.54
			c17.204-39.933,30.843-81.348,40.849-123.722l92.42,6.462c25.828,1.808,47.943-17.847,49.38-43.88l8.989-162.498
			C2628.702,1673.606,2608.969,1651.162,2583.207,1649.399z M1972.914,2147.959c-233.055,115.648-514.603,16.834-628.231-219.41
			c-112.944-234.822-17.135-516.88,213.388-631.272c230.515-114.39,510.487-18.805,625.96,214.764
			C2300.199,1747.024,2205.966,2032.312,1972.914,2147.959z"/>
		<g>
			<g>
				<linearGradient id="SVGID_1_" gradientUnits="userSpaceOnUse" x1="1623.9982" y1="-1663.178" x2="1044.161" y2="1543.6827">
					<stop  offset="0" style="stop-color:#444B8C"/>
					<stop  offset="0.9964" style="stop-color:#26264F"/>
				</linearGradient>
				<path style="fill:url(#SVGID_1_);" d="M1094.726,1731.664c0.013,0.017,0.029,0.032,0.044,0.049
					c1.178,1.381,2.397,2.704,3.641,3.988c0.41,0.422,0.835,0.82,1.251,1.232c0.872,0.862,1.75,1.711,2.649,2.527
					c0.498,0.45,1.003,0.883,1.508,1.319c0.86,0.744,1.732,1.47,2.616,2.173c0.521,0.414,1.044,0.823,1.573,1.224
					c0.928,0.702,1.87,1.376,2.819,2.034c0.496,0.343,0.986,0.693,1.487,1.024c1.133,0.749,2.285,1.459,3.445,2.148
					c0.328,0.195,0.65,0.406,0.98,0.596c1.537,0.884,3.096,1.718,4.674,2.499c0.138,0.068,0.279,0.126,0.417,0.193
					c1.427,0.695,2.869,1.347,4.327,1.958c0.415,0.174,0.834,0.33,1.25,0.497c1.207,0.484,2.418,0.944,3.643,1.371
					c0.469,0.164,0.941,0.319,1.412,0.474c1.221,0.402,2.447,0.776,3.682,1.122c0.438,0.123,0.875,0.247,1.315,0.363
					c1.371,0.361,2.751,0.686,4.137,0.979c0.293,0.062,0.582,0.133,0.876,0.192c5.205,1.047,10.498,1.612,15.806,1.708
					c0.25,0.004,0.503,0.001,0.753,0.003c1.512,0.014,3.023-0.009,4.533-0.072c0.301-0.012,0.603-0.027,0.904-0.043
					c1.517-0.078,3.032-0.196,4.546-0.351c0.238-0.024,0.474-0.045,0.711-0.071c22.034-2.445,43.395-13.081,58.759-31.831
					c137.526-167.81,436.496-556.457,436.496-767.146c0-272.305-222.961-499.069-503.209-506.631
					c-27.165-0.733-53.884,0.633-80.01,3.922l0,0c-0.035,0.004-0.068,0.01-0.1,0.014c-11.244,1.417-22.373,3.201-33.382,5.325
					c-0.326,0.063-0.654,0.119-0.979,0.182c-2.995,0.584-5.973,1.211-8.948,1.847c-0.954,0.203-1.911,0.397-2.862,0.605
					c-2.761,0.606-5.509,1.246-8.253,1.896c-1.144,0.271-2.288,0.536-3.429,0.814c-2.654,0.647-5.297,1.322-7.934,2.01
					c-1.207,0.315-2.415,0.631-3.619,0.954c-2.599,0.697-5.19,1.416-7.771,2.153c-1.21,0.346-2.417,0.697-3.624,1.051
					c-2.588,0.76-5.172,1.534-7.743,2.333c-1.145,0.355-2.285,0.722-3.426,1.086c-2.627,0.837-5.252,1.682-7.862,2.56
					c-0.995,0.335-1.983,0.684-2.977,1.024c-2.747,0.943-5.493,1.892-8.219,2.88c-0.584,0.211-1.16,0.434-1.74,0.647
					c-12.979,4.755-25.708,10.018-38.165,15.761c-0.835,0.385-1.677,0.759-2.51,1.149c-2.456,1.149-4.893,2.331-7.328,3.517
					c-1.099,0.535-2.203,1.065-3.297,1.607c-2.318,1.149-4.617,2.323-6.914,3.506c-1.18,0.608-2.36,1.215-3.534,1.831
					c-2.242,1.177-4.473,2.373-6.695,3.583c-1.207,0.656-2.408,1.316-3.609,1.982c-2.188,1.214-4.369,2.442-6.539,3.687
					c-1.195,0.686-2.382,1.381-3.571,2.076c-2.171,1.27-4.337,2.547-6.487,3.847c-1.136,0.688-2.263,1.389-3.394,2.085
					c-2.184,1.344-4.366,2.691-6.527,4.067c-1,0.636-1.986,1.289-2.981,1.932c-2.278,1.474-4.558,2.946-6.811,4.455
					c-0.466,0.31-0.92,0.633-1.385,0.945c-7.987,5.386-15.806,10.997-23.459,16.815c-0.926,0.705-1.863,1.398-2.786,2.109
					c-1.94,1.497-3.856,3.022-5.774,4.546c-1.141,0.906-2.287,1.805-3.418,2.72c-1.811,1.465-3.603,2.952-5.394,4.441
					c-1.212,1.008-2.424,2.014-3.625,3.032c-1.734,1.468-3.449,2.953-5.163,4.443c-1.228,1.07-2.452,2.143-3.67,3.225
					c-1.672,1.485-3.334,2.98-4.985,4.487c-1.228,1.12-2.448,2.248-3.665,3.38c-1.622,1.509-3.239,3.023-4.841,4.554
					c-1.212,1.157-2.412,2.328-3.611,3.497c-1.58,1.541-3.163,3.081-4.723,4.642c-1.187,1.187-2.356,2.391-3.531,3.59
					c-1.544,1.577-3.094,3.148-4.619,4.745c-1.143,1.198-2.262,2.415-3.393,3.624c-1.528,1.633-3.066,3.257-4.572,4.91
					c-0.755,0.829-1.489,1.677-2.239,2.511c-3.123,3.474-6.193,6.993-9.218,10.553c-1.165,1.371-2.341,2.732-3.492,4.116
					c-1.298,1.562-2.567,3.146-3.846,4.724c-1.186,1.463-2.378,2.921-3.548,4.398c-1.248,1.574-2.472,3.167-3.701,4.757
					c-1.164,1.508-2.331,3.015-3.481,4.536c-1.198,1.59-2.38,3.192-3.56,4.796c-1.15,1.561-2.293,3.124-3.424,4.699
					c-1.147,1.596-2.28,3.201-3.408,4.811c-1.126,1.608-2.243,3.223-3.351,4.845c-1.098,1.611-2.193,3.225-3.273,4.85
					c-1.108,1.662-2.198,3.335-3.285,5.012c-1.043,1.608-2.086,3.216-3.11,4.837c-1.097,1.737-2.174,3.489-3.251,5.241
					c-0.976,1.587-1.957,3.17-2.916,4.769c-1.13,1.885-2.23,3.79-3.335,5.691c-0.865,1.49-1.746,2.97-2.596,4.47
					c-1.348,2.376-2.657,4.775-3.968,7.174c-0.8,1.468-1.604,2.934-2.391,4.412c-1.589,2.986-3.158,5.984-4.687,9.005
					c-0.703,1.389-1.375,2.794-2.065,4.19c-1.06,2.147-2.125,4.291-3.155,6.455c-0.739,1.555-1.453,3.124-2.177,4.687
					c-0.944,2.035-1.886,4.069-2.801,6.118c-0.722,1.62-1.425,3.252-2.132,4.881c-0.876,2.021-1.747,4.044-2.597,6.078
					c-0.69,1.652-1.366,3.311-2.037,4.972c-0.828,2.043-1.642,4.091-2.442,6.147c-0.649,1.667-1.291,3.337-1.921,5.012
					c-0.785,2.084-1.551,4.177-2.309,6.274c-0.599,1.659-1.195,3.317-1.777,4.984c-0.757,2.167-1.487,4.344-2.212,6.525
					c-0.54,1.619-1.084,3.234-1.608,4.86c-0.742,2.31-1.452,4.635-2.162,6.96c-0.459,1.51-0.934,3.015-1.38,4.531
					c-0.806,2.739-1.573,5.495-2.332,8.254c-0.307,1.118-0.635,2.227-0.936,3.348c-1.036,3.873-2.027,7.764-2.971,11.673
					c-0.241,1.002-0.456,2.014-0.692,3.018c-0.69,2.933-1.368,5.87-2.003,8.823c-0.322,1.496-0.614,3.001-0.922,4.502
					c-0.511,2.482-1.018,4.965-1.491,7.461c-0.311,1.645-0.598,3.297-0.892,4.948c-0.424,2.376-0.843,4.754-1.233,7.142
					c-0.279,1.71-0.541,3.426-0.801,5.142c-0.358,2.348-0.705,4.699-1.03,7.057c-0.241,1.748-0.469,3.5-0.692,5.254
					c-0.298,2.354-0.579,4.713-0.843,7.078c-0.196,1.753-0.388,3.506-0.566,5.265c-0.243,2.406-0.46,4.819-0.669,7.234
					c-0.149,1.725-0.302,3.448-0.432,5.177c-0.19,2.513-0.347,5.035-0.5,7.559c-0.098,1.642-0.209,3.28-0.292,4.926
					c-0.141,2.782-0.238,5.574-0.332,8.368c-0.047,1.394-0.115,2.783-0.149,4.18c-0.106,4.193-0.166,8.397-0.166,12.616
					c0,10.258,0.7,20.917,2.05,31.935c12.883,105.091,84.709,242.223,170.982,374.12c5.179,7.919,10.407,15.816,15.68,23.688
					c5.033,7.513,10.096,15.006,15.198,22.463c9.29,13.578,18.68,27.05,28.119,40.375c6.291,8.878,12.601,17.691,18.919,26.426
					c4.466,6.173,8.936,12.293,13.403,18.384c3.694,5.038,7.385,10.044,11.076,15.021c4.466,6.023,8.926,12.016,13.374,17.941
					c12.556,16.725,25.023,33.043,37.282,48.858c4.381,5.65,8.723,11.211,13.044,16.728
					C1022.206,1645.248,1062.906,1694.308,1094.726,1731.664z"/>
				
					<linearGradient id="SVGID_00000003820488858295576720000016340876443289884826_" gradientUnits="userSpaceOnUse" x1="1241.2134" y1="1533.1194" x2="1148.5172" y2="2045.7869">
					<stop  offset="0" style="stop-color:#444B8C"/>
					<stop  offset="0.9964" style="stop-color:#26264F"/>
				</linearGradient>
				<path style="fill:url(#SVGID_00000003820488858295576720000016340876443289884826_);" d="M1161.77,1872.048
					c-58.006,1.472-105.21,48.824-105.21,105.758c0,56.933,47.204,101.531,105.21,99.618
					c57.758-1.905,104.398-49.241,104.398-105.735C1266.168,1915.196,1219.528,1870.582,1161.77,1872.048z"/>
			</g>
			<g>
				<g>
					<g>
						
							<linearGradient id="SVGID_00000041983386006202940470000014979510942440240003_" gradientUnits="userSpaceOnUse" x1="1131.392" y1="774.4698" x2="1638.9557" y2="2081.8289">
							<stop  offset="0" style="stop-color:#AA80F9"/>
							<stop  offset="0.9964" style="stop-color:#6165D7"/>
						</linearGradient>
						<path style="fill:url(#SVGID_00000041983386006202940470000014979510942440240003_);" d="M1707.878,962.185
							c0,210.349-298,598.361-435.075,765.892c-34.329,41.957-98.737,43.353-133.318,2.686
							c-139.861-164.474-454.091-558.719-454.091-777.181c0-282.351,235.685-504.883,520.915-497.186
							C1485.64,463.932,1707.878,690.319,1707.878,962.185z"/>
						<path style="fill:#FFFFFF;" d="M1552.678,949.365c0,190.001-155.834,344.66-350.592,345.45
							c-197.607,0.801-359.934-156.671-359.934-351.735s162.327-349.664,359.934-345.367
							C1396.845,601.948,1552.678,759.364,1552.678,949.365z"/>
						<g style="opacity:0.2;">
							
								<linearGradient id="SVGID_00000081633232589587543700000008442770525296894852_" gradientUnits="userSpaceOnUse" x1="952.1206" y1="844.1714" x2="1459.7677" y2="2151.7449">
								<stop  offset="0" style="stop-color:#AA80F9"/>
								<stop  offset="0.9964" style="stop-color:#6165D7"/>
							</linearGradient>
							<path style="fill:url(#SVGID_00000081633232589587543700000008442770525296894852_);" d="M1204.05,1523.508
								c32.391-209.734,172.35-277.056,148.432-473.808c-27.639-227.344-233.28-291.095-238.281-494.972
								c-0.805-32.83,3.758-64.353,12.36-94.415c-248.183,31.3-441.168,237.974-441.168,493.268
								c0,218.461,314.23,612.708,454.091,777.181c20.365,23.949,51.091,33.296,79.913,28.371
								C1194.621,1667.833,1193.87,1589.429,1204.05,1523.508z"/>
						</g>
					</g>
					
						<linearGradient id="SVGID_00000065765438422534064940000012845380811013033642_" gradientUnits="userSpaceOnUse" x1="1339.9628" y1="1769.9512" x2="1005.4083" y2="2277.7578">
						<stop  offset="0" style="stop-color:#AA80F9"/>
						<stop  offset="0.9964" style="stop-color:#6165D7"/>
					</linearGradient>
					<path style="fill:url(#SVGID_00000065765438422534064940000012845380811013033642_);" d="M1310.365,1970.401
						c0,56.401-46.488,103.657-104.056,105.556c-57.815,1.906-104.864-42.62-104.864-99.459c0-56.84,47.05-104.112,104.864-105.579
						C1263.876,1869.456,1310.365,1913.999,1310.365,1970.401z"/>
				</g>
				<g>
					<defs>
						<path id="SVGID_00000129198886281184501930000015824775933240907923_" d="M1520.634,953.44
							c0,172.635-141.685,313.012-318.547,313.547c-179.209,0.542-326.241-142.341-326.241-319.146s147.032-317.134,326.241-313.48
							C1378.949,637.968,1520.634,780.805,1520.634,953.44z"/>
					</defs>
					<clipPath id="SVGID_00000035490191230807249920000006864872437019701430_">
						<use xlink:href="#SVGID_00000129198886281184501930000015824775933240907923_"  style="overflow:visible;"/>
					</clipPath>
					<g style="clip-path:url(#SVGID_00000035490191230807249920000006864872437019701430_);">
						<g>
							
								<linearGradient id="SVGID_00000005958508747897256950000004118173992291722941_" gradientUnits="userSpaceOnUse" x1="1203.9803" y1="190.5998" x2="990.6852" y2="1370.2548">
								<stop  offset="0" style="stop-color:#AA80F9"/>
								<stop  offset="0.9964" style="stop-color:#6165D7"/>
							</linearGradient>
							<path style="fill:url(#SVGID_00000005958508747897256950000004118173992291722941_);" d="M1160.53,930.35
								c0,72.353-40.153,130.822-89.849,130.595c-49.878-0.228-90.448-59.458-90.448-132.293s40.569-131.3,90.448-130.589
								C1120.377,798.771,1160.53,857.997,1160.53,930.35z"/>
							
								<linearGradient id="SVGID_00000028323764169689729170000005317629496366588326_" gradientUnits="userSpaceOnUse" x1="1265.7004" y1="214.1118" x2="1054.1989" y2="1383.8479">
								<stop  offset="0" style="stop-color:#AA80F9"/>
								<stop  offset="0.9964" style="stop-color:#6165D7"/>
							</linearGradient>
							<path style="fill:url(#SVGID_00000028323764169689729170000005317629496366588326_);" d="M1091.542,1037.102
								c-13.934-0.076-27.877-0.152-41.841-0.229c-3.666,146.308-7.33,295.309-10.997,445.283
								c-0.217,8.888,3.242,15.186,9.604,21.472c6.359,6.282,15.073,8.633,24.166,8.523c8.12-0.098,15.893-3.966,21.558-9.705
								c5.661-5.737,8.746-9.207,8.552-17.125C1098.905,1334.548,1095.224,1183.186,1091.542,1037.102z"/>
						</g>
						<g>
							
								<linearGradient id="SVGID_00000120547673992931119850000000241532829421558456_" gradientUnits="userSpaceOnUse" x1="1464.3235" y1="255.8344" x2="1253.9651" y2="1419.2474">
								<stop  offset="0" style="stop-color:#AA80F9"/>
								<stop  offset="0.9964" style="stop-color:#6165D7"/>
							</linearGradient>
							<path style="fill:url(#SVGID_00000120547673992931119850000000241532829421558456_);" d="M1410.842,808.195l-22.338-0.155
								v154.847l-17.552-0.15V807.922l-17.552-0.118v154.781l-31.593-0.242V807.366l-17.552-0.395v155.221l-28.082-0.243V806.42
								l-12.736-0.307c0,0-18.123,142.376-14.694,208.528c0.421,8.127,5.83,15.86,12.568,21.671
								c12.5,10.779,37.898,25.679,78.928,25.867c40.508,0.185,65.181-14.414,77.548-25.004c6.657-5.701,9.821-13.332,10.236-21.4
								C1431.404,950.124,1410.842,808.195,1410.842,808.195z"/>
							
								<linearGradient id="SVGID_00000089540496564299293220000005306465962074345883_" gradientUnits="userSpaceOnUse" x1="1524.1223" y1="275.2108" x2="1314.7433" y2="1433.2073">
								<stop  offset="0" style="stop-color:#AA80F9"/>
								<stop  offset="0.9964" style="stop-color:#6165D7"/>
							</linearGradient>
							<path style="fill:url(#SVGID_00000089540496564299293220000005306465962074345883_);" d="M1360.843,1038.573
								c-13.659-0.075-27.326-0.149-41.013-0.224c-3.593,144.854-7.185,292.373-10.78,440.854c-0.213,8.8,3.178,15.036,9.414,21.26
								c6.233,6.221,14.774,8.549,23.688,8.442c7.96-0.096,15.579-3.925,21.132-9.606c5.549-5.679,8.573-9.114,8.383-16.953
								C1368.061,1333.066,1364.453,1183.206,1360.843,1038.573z"/>
						</g>
					</g>
				</g>
			</g>
		</g>
		<g>
			<g>
				<g>
					<path style="fill:#26264F;" d="M2027.518,854.179c-84.928,717.795-169.857,1428.096-254.786,2130.912
						c-3.812,31.509,17.958,59.378,48.417,61.973c341.325,32.378,682.651,65.471,1023.977,99.272
						c60.887,2.955,94.321-31.069,98.24-65.131c87.418-758.692,174.835-1525.328,262.252-2299.903
						c3.92-34.788-25.551-64.69-86.437-61.718c-343.007,24.456-686.014,48.589-1029.02,72.398
						C2059.5,794.011,2031.328,821.981,2027.518,854.179z"/>
					
						<linearGradient id="SVGID_00000057862031229095297820000001629036133660329379_" gradientUnits="userSpaceOnUse" x1="3011.6365" y1="1932.3657" x2="5177.5298" y2="1849.5648" gradientTransform="matrix(-1 0 -0.1172 1.0028 6235.6182 -3.761)">
						<stop  offset="0" style="stop-color:#444B8C"/>
						<stop  offset="0.9964" style="stop-color:#26264F"/>
					</linearGradient>
					<path style="fill:url(#SVGID_00000057862031229095297820000001629036133660329379_);" d="M1980.113,852.709
						c-85.463,720.923-170.926,1434.264-256.389,2140.018c-3.835,31.615,18.068,59.644,48.72,62.259
						c354.422,30.015,708.846,60.621,1063.269,91.833c32.344,2.875,62.074-22.743,66.015-56.969
						c87.968-762.169,175.935-1532.365,263.903-2310.614c3.944-34.935-19.501-61.755-52.061-59.546
						c-356.807,23.801-713.614,47.312-1070.419,70.547C2012.293,792.29,1983.948,820.369,1980.113,852.709z"/>
					
						<linearGradient id="SVGID_00000073713366845912611900000005403926245086640006_" gradientUnits="userSpaceOnUse" x1="3970.772" y1="1107.2916" x2="1886.8491" y2="5429.7354" gradientTransform="matrix(-1 0 0 1 6011.7134 0)">
						<stop  offset="0.0036" style="stop-color:#E38DDD"/>
						<stop  offset="1" style="stop-color:#9571F6"/>
					</linearGradient>
					<path style="fill:url(#SVGID_00000073713366845912611900000005403926245086640006_);" d="M2000.705,970.652
						c-79.158,667.931-158.318,1329.346-237.477,1984.257c-3.582,29.599,16.889,55.738,45.528,58.068
						c333.315,27.26,666.633,55.038,999.948,83.335c30.116,2.582,57.802-21.4,61.481-53.198
						c81.337-703.97,162.673-1414.817,244.01-2132.532c3.675-32.471-18.142-57.603-48.448-55.806
						c-335.392,19.527-670.785,38.857-1006.177,57.972C2030.757,914.393,2004.278,940.482,2000.705,970.652z"/>
					<path style="opacity:0.4;fill:#F4F7FA;" d="M2059.571,912.748c331.419-18.889,662.84-37.993,994.259-57.282
						c-10.245,58.904-28.108,123.012-58.229,188.362c-109.932,238.5-271.431,251.634-334.615,459.471
						c-65.094,214.121,81.708,281.131,9.989,474.454c-77.825,209.778-268.693,179.417-369.574,409.528
						c-86.953,198.336,24.986,289.001-64.926,409.528c-98.551,132.108-280.863,87.319-470.103,132.062
						c78.111-646.411,156.223-1299.128,234.333-1958.218C2004.278,940.482,2030.757,914.394,2059.571,912.748z"/>
				</g>
				<path style="fill:#DE8BDF;" d="M2543.653,824.706c-1.348,11.613,6.455,20.505,17.435,19.871
					c10.986-0.668,20.989-10.652,22.338-22.319c1.35-11.634-6.467-20.576-17.454-19.859
					C2554.987,803.08,2545,813.072,2543.653,824.706z"/>
			</g>
			<g>
				<g style="opacity:0.4;">
					<g>
						
							<linearGradient id="SVGID_00000077317195597762720220000007061652241167429776_" gradientUnits="userSpaceOnUse" x1="2152.9709" y1="1843.3319" x2="2732.325" y2="1843.3319">
							<stop  offset="0.0036" style="stop-color:#E38DDD"/>
							<stop  offset="1" style="stop-color:#9571F6"/>
						</linearGradient>
						<path style="fill:url(#SVGID_00000077317195597762720220000007061652241167429776_);" d="M2153.73,1802.181
							c24.881,53.84,109.087,96.054,214.105,98.48l123.014,2.842c107.637,2.486,203.352-36.702,239.844-90.936
							c2.829-4.203,1.962-9.82-2.471-13.504c-4.428-3.682-11.719-6.892-19.753-7.028l-530.302-8.981
							c-7.584-0.128-14.987,2.74-19.78,6.155C2153.596,1792.623,2151.808,1798.023,2153.73,1802.181z"/>
						
							<linearGradient id="SVGID_00000073687539070011444860000005707313489144393089_" gradientUnits="userSpaceOnUse" x1="2178.623" y1="1498.0216" x2="2757.0679" y2="1498.0216">
							<stop  offset="0.0036" style="stop-color:#E38DDD"/>
							<stop  offset="1" style="stop-color:#9571F6"/>
						</linearGradient>
						<path style="fill:url(#SVGID_00000073687539070011444860000005707313489144393089_);" d="M2180.395,1558.533
							c37.98-86.14,131.41-147.608,236.033-147.953l122.541-0.404c107.215-0.354,193.471,62.23,217.386,151.072
							c1.858,6.899,0.063,12.021-5.183,17.839c-5.242,5.817-12.881,6.829-20.904,6.781l-529.583-3.188
							c-7.574-0.046-14.589-1.113-18.509-6.808C2178.258,1570.179,2177.455,1565.198,2180.395,1558.533z"/>
						
							<linearGradient id="SVGID_00000180327167802436992730000014032474673691327649_" gradientUnits="userSpaceOnUse" x1="2175.6521" y1="1643.425" x2="2751.5742" y2="1643.425">
							<stop  offset="0.0036" style="stop-color:#E38DDD"/>
							<stop  offset="1" style="stop-color:#9571F6"/>
						</linearGradient>
						<path style="fill:url(#SVGID_00000180327167802436992730000014032474673691327649_);" d="M2751.471,1645.69
							c-1.353,15.591-15.454,27.013-31.586,26.842l-519.035-5.505c-15.233-0.162-26.504-11.501-25.075-26.617l0,0
							c1.428-15.109,14.813-26.21,30.039-26.092l518.795,4.015C2740.733,1618.457,2752.823,1630.106,2751.471,1645.69
							L2751.471,1645.69z"/>
						<g>
							
								<linearGradient id="SVGID_00000016063534840986669990000007174440269923695796_" gradientUnits="userSpaceOnUse" x1="2184.4421" y1="1719.5493" x2="2755.0591" y2="1719.5493">
								<stop  offset="0.0036" style="stop-color:#E38DDD"/>
								<stop  offset="1" style="stop-color:#9571F6"/>
							</linearGradient>
							<path style="fill:url(#SVGID_00000016063534840986669990000007174440269923695796_);" d="M2646.423,1753.579
								c-27.289-0.408-40.011-13.751-51.216-25.503c-10.104-10.598-18.818-19.736-38.237-19.981
								c-19.375-0.244-29.648,8.628-41.534,18.893c-13.148,11.355-28.034,24.213-54.861,23.812
								c-26.748-0.4-39.177-13.61-50.123-25.243c-9.868-10.492-18.38-19.539-37.416-19.779
								c-18.997-0.239-29.098,8.546-40.784,18.713c-12.93,11.245-27.571,23.978-53.874,23.585
								c-26.229-0.392-38.373-13.471-49.069-24.989c-9.643-10.388-17.96-19.346-36.628-19.581c-4.998-0.063-8.667-4.141-8.198-9.109
								c0.469-4.967,4.897-8.946,9.894-8.888c26.035,0.302,38.136,13.311,48.833,24.807c9.672,10.399,18.036,19.39,36.852,19.653
								c18.855,0.263,28.917-8.498,40.578-18.652c12.927-11.252,27.592-24.021,54.065-23.714
								c26.548,0.308,38.932,13.447,49.879,25.058c9.898,10.503,18.458,19.585,37.647,19.853
								c19.229,0.269,29.462-8.578,41.322-18.831c13.143-11.363,28.055-24.256,55.056-23.943
								c27.081,0.315,39.758,13.586,50.963,25.314c10.135,10.609,18.9,19.783,38.477,20.056c19.618,0.274,30.026-8.66,42.089-19.015
								c13.369-11.475,28.538-24.496,56.085-24.176c5.305,0.062,9.247,4.262,8.803,9.384c-0.444,5.123-5.106,9.221-10.412,9.154
								c-19.771-0.249-30.219,8.71-42.309,19.078C2688.931,1741.004,2673.789,1753.988,2646.423,1753.579z"/>
						</g>
					</g>
					
						<linearGradient id="SVGID_00000010295219473661002740000004670687693730921613_" gradientUnits="userSpaceOnUse" x1="1962.2971" y1="2592.0005" x2="2804.845" y2="2592.0005">
						<stop  offset="0.0036" style="stop-color:#E38DDD"/>
						<stop  offset="1" style="stop-color:#9571F6"/>
					</linearGradient>
					<path style="fill:url(#SVGID_00000010295219473661002740000004670687693730921613_);" d="M2802.745,2627.56
						c-2.276,26.791-27.08,47.068-55.324,45.277l-742.35-47.071c-25.997-1.649-45.021-23.738-42.559-49.325l2.091-21.729
						c2.459-25.556,25.452-45.061,51.425-43.579l741.616,42.327c28.214,1.61,49.307,24.595,47.034,51.351L2802.745,2627.56z"/>
					
						<linearGradient id="SVGID_00000116215006651610267100000011411030251170176151_" gradientUnits="userSpaceOnUse" x1="1981.5038" y1="2272.5244" x2="2843.0474" y2="2272.5244">
						<stop  offset="0.0036" style="stop-color:#E38DDD"/>
						<stop  offset="1" style="stop-color:#9571F6"/>
					</linearGradient>
					<path style="fill:url(#SVGID_00000116215006651610267100000011411030251170176151_);" d="M2842.883,2155.029
						c2.245-26.436-18.778-48.615-46.88-49.552l-738.847-24.652c-25.882-0.864-48.78,18.906-51.21,44.169l-24.23,251.839
						c-2.449,25.452,16.551,47.196,42.507,48.554l741.066,38.788c28.192,1.476,52.943-18.936,55.206-45.578L2842.883,2155.029z
						 M2528.479,2187.99l-118.818,188.837c-5.417,8.608-15.104,13.853-25.287,13.697c-0.327-0.005-0.654-0.015-0.984-0.031
						c-9.77-0.483-18.397-5.923-22.698-14.374l-71.635-140.794c-6.661-13.085-0.909-29.47,12.849-36.619
						c13.767-7.157,30.374-2.363,37.079,10.736l49.961,97.645l91.527-145.689c8.245-13.121,25.666-17.836,38.928-10.515
						C2532.683,2158.214,2536.758,2174.836,2528.479,2187.99z"/>
				</g>
				<g>
					<g>
						<path style="fill:#FFFFFF;" d="M2142.592,1802.181c24.881,53.84,109.087,96.054,214.105,98.48l123.014,2.842
							c107.637,2.486,203.352-36.702,239.844-90.936c2.829-4.203,1.961-9.82-2.471-13.504c-4.429-3.682-11.719-6.892-19.753-7.028
							l-530.302-8.981c-7.584-0.128-14.987,2.74-19.779,6.155C2142.458,1792.623,2140.669,1798.023,2142.592,1802.181z"/>
						<path style="fill:#FFFFFF;" d="M2169.256,1558.533c37.981-86.14,131.41-147.608,236.033-147.953l122.541-0.404
							c107.215-0.354,193.471,62.23,217.386,151.072c1.858,6.899,0.063,12.021-5.183,17.839c-5.242,5.817-12.881,6.829-20.904,6.781
							l-529.583-3.188c-7.574-0.046-14.588-1.113-18.509-6.808C2167.119,1570.179,2166.316,1565.198,2169.256,1558.533z"/>
						<path style="fill:#FFFFFF;" d="M2740.332,1645.69c-1.353,15.591-15.454,27.013-31.587,26.842l-519.035-5.505
							c-15.233-0.162-26.504-11.501-25.075-26.617l0,0c1.429-15.109,14.813-26.21,30.039-26.092l518.795,4.015
							C2729.594,1618.457,2741.684,1630.106,2740.332,1645.69L2740.332,1645.69z"/>
						<g>
							<path style="fill:#FFFFFF;" d="M2635.284,1753.579c-27.289-0.408-40.011-13.751-51.216-25.503
								c-10.104-10.598-18.818-19.736-38.237-19.981c-19.375-0.244-29.648,8.628-41.534,18.893
								c-13.148,11.355-28.034,24.213-54.861,23.812c-26.748-0.4-39.177-13.61-50.122-25.243
								c-9.868-10.492-18.38-19.539-37.416-19.779c-18.997-0.239-29.098,8.546-40.785,18.713
								c-12.929,11.245-27.571,23.978-53.874,23.585c-26.228-0.392-38.373-13.471-49.068-24.989
								c-9.643-10.388-17.96-19.346-36.628-19.581c-4.998-0.063-8.667-4.141-8.198-9.109c0.469-4.967,4.897-8.946,9.894-8.888
								c26.034,0.302,38.136,13.311,48.833,24.807c9.672,10.399,18.036,19.39,36.852,19.653
								c18.855,0.263,28.917-8.498,40.578-18.652c12.927-11.252,27.593-24.021,54.065-23.714
								c26.548,0.308,38.932,13.447,49.879,25.058c9.898,10.503,18.458,19.585,37.647,19.853
								c19.229,0.269,29.462-8.578,41.321-18.831c13.143-11.363,28.056-24.256,55.057-23.943
								c27.081,0.315,39.758,13.586,50.963,25.314c10.135,10.609,18.9,19.783,38.478,20.056c19.618,0.274,30.025-8.66,42.088-19.015
								c13.369-11.475,28.538-24.496,56.085-24.176c5.305,0.062,9.247,4.262,8.803,9.384c-0.444,5.123-5.106,9.221-10.412,9.154
								c-19.771-0.249-30.219,8.71-42.309,19.078C2677.792,1741.004,2662.65,1753.988,2635.284,1753.579z"/>
						</g>
					</g>
					<path style="fill:#FFFFFF;" d="M2791.606,2627.56c-2.276,26.791-27.08,47.068-55.324,45.277l-742.351-47.071
						c-25.997-1.649-45.021-23.738-42.559-49.325l2.091-21.729c2.459-25.556,25.452-45.061,51.425-43.579l741.616,42.327
						c28.214,1.61,49.307,24.595,47.034,51.351L2791.606,2627.56z"/>
					<path style="fill:#FFFFFF;" d="M2831.744,2155.029c2.246-26.436-18.778-48.615-46.88-49.552l-738.847-24.652
						c-25.882-0.864-48.78,18.906-51.21,44.169l-24.23,251.839c-2.449,25.452,16.552,47.196,42.507,48.554l741.066,38.788
						c28.192,1.476,52.943-18.936,55.206-45.578L2831.744,2155.029z M2517.34,2187.99l-118.818,188.837
						c-5.418,8.608-15.104,13.853-25.288,13.697c-0.327-0.005-0.654-0.015-0.984-0.031c-9.77-0.483-18.397-5.923-22.698-14.374
						l-71.635-140.794c-6.661-13.085-0.91-29.47,12.849-36.619c13.767-7.157,30.374-2.363,37.079,10.736l49.961,97.645
						l91.527-145.689c8.245-13.121,25.666-17.836,38.928-10.515C2521.544,2158.214,2525.619,2174.836,2517.34,2187.99z"/>
				</g>
			</g>
		</g>
		<g>
			<g>
				
					<linearGradient id="SVGID_00000041982958845325958890000003772222242824824212_" gradientUnits="userSpaceOnUse" x1="1684.2198" y1="2430.697" x2="1793.7385" y2="2430.697">
					<stop  offset="0" style="stop-color:#FF9085"/>
					<stop  offset="1" style="stop-color:#FB6FBB"/>
				</linearGradient>
				<path style="fill:url(#SVGID_00000041982958845325958890000003772222242824824212_);" d="M1788.489,2413.734l-42.979-53.009
					l-43.079,39.386c-20.876,19.087-24.237,50.747-7.833,73.791l19.055,26.767l65.99-27.306l12.811-37.156
					C1795.1,2428.534,1793.6,2420.039,1788.489,2413.734z"/>
				
					<linearGradient id="SVGID_00000158727955086239257290000013960377408556429740_" gradientUnits="userSpaceOnUse" x1="1693.1724" y1="2305.6575" x2="1879.3324" y2="2305.6575">
					<stop  offset="0" style="stop-color:#FF9085"/>
					<stop  offset="1" style="stop-color:#FB6FBB"/>
				</linearGradient>
				<path style="fill:url(#SVGID_00000158727955086239257290000013960377408556429740_);" d="M1879.332,2305.657
					c0,47.206-12.991,87.101-50.005,100.201c-8.343,2.962-17.91,4.538-28.807,4.538c-59.299,0-107.348-46.907-107.348-104.739
					c0-57.071,46.744-103.434,104.902-104.711c0.815-0.028,1.631-0.028,2.446-0.028
					C1859.819,2200.918,1879.332,2247.798,1879.332,2305.657z"/>
				<g>
					
						<linearGradient id="SVGID_00000089540175520403963910000009297930407956187309_" gradientUnits="userSpaceOnUse" x1="716.9793" y1="3070.6838" x2="1085.6116" y2="3070.6838">
						<stop  offset="0" style="stop-color:#444B8C"/>
						<stop  offset="0.9964" style="stop-color:#26264F"/>
					</linearGradient>
					
						<circle style="fill:url(#SVGID_00000089540175520403963910000009297930407956187309_);" cx="901.295" cy="3070.684" r="184.316"/>
					<circle style="fill:#FFFFFF;" cx="901.295" cy="3070.684" r="127.189"/>
				</g>
				
					<linearGradient id="SVGID_00000040561923346917499250000017940343294514301595_" gradientUnits="userSpaceOnUse" x1="839.8567" y1="3074.666" x2="959.3209" y2="3074.666">
					<stop  offset="0" style="stop-color:#444B8C"/>
					<stop  offset="0.9964" style="stop-color:#26264F"/>
				</linearGradient>
				
					<circle style="opacity:0.6;fill:url(#SVGID_00000040561923346917499250000017940343294514301595_);" cx="899.589" cy="3074.666" r="59.732"/>
				
					<linearGradient id="SVGID_00000058549911108238135170000008834240614169130148_" gradientUnits="userSpaceOnUse" x1="1982.0625" y1="495.4634" x2="1985.6152" y2="549.0077" gradientTransform="matrix(0.9065 0.4221 -0.7442 1.5981 -792.9082 1021.1049)">
					<stop  offset="0" style="stop-color:#AB316D"/>
					<stop  offset="1" style="stop-color:#792D3D"/>
				</linearGradient>
				<path style="fill:url(#SVGID_00000058549911108238135170000008834240614169130148_);" d="M719.883,2777.873
					c-1.403,3.013-3.926,4.81-5.634,4.014l-225.878-105.186c-1.709-0.796-1.957-3.883-0.554-6.896l0,0
					c1.403-3.013,3.926-4.81,5.634-4.014l225.878,105.186C721.037,2771.773,721.286,2774.86,719.883,2777.873L719.883,2777.873z"/>
				<g>
					
						<linearGradient id="SVGID_00000140003531149633603630000009560763198963175085_" gradientUnits="userSpaceOnUse" x1="1220.1758" y1="2516.0845" x2="1232.3204" y2="2699.1204">
						<stop  offset="0" style="stop-color:#AB316D"/>
						<stop  offset="1" style="stop-color:#792D3D"/>
					</linearGradient>
					
						<rect x="1051.515" y="2644.207" style="fill:url(#SVGID_00000140003531149633603630000009560763198963175085_);" width="358.051" height="56.165"/>
					
						<linearGradient id="SVGID_00000090983916059562102500000006874563292010466745_" gradientUnits="userSpaceOnUse" x1="1030.4529" y1="2623.1453" x2="1437.6481" y2="2623.1453">
						<stop  offset="0" style="stop-color:#AB316D"/>
						<stop  offset="1" style="stop-color:#792D3D"/>
					</linearGradient>
					<path style="fill:url(#SVGID_00000090983916059562102500000006874563292010466745_);" d="M1437.648,2624.831
						c0,18.456-14.961,33.417-33.417,33.417H1063.87c-18.456,0-33.417-14.961-33.417-33.417v-3.372
						c0-18.456,14.961-33.417,33.417-33.417h340.361c18.456,0,33.417,14.961,33.417,33.417V2624.831z"/>
				</g>
				
					<linearGradient id="SVGID_00000015334390248232910130000000440716264375306400_" gradientUnits="userSpaceOnUse" x1="638.456" y1="3006.2095" x2="854.6472" y2="3006.2095">
					<stop  offset="0" style="stop-color:#AB316D"/>
					<stop  offset="1" style="stop-color:#792D3D"/>
				</linearGradient>
				<path style="fill:url(#SVGID_00000015334390248232910130000000440716264375306400_);" d="M736.615,2932.934
					c0,0-96.545,30.707-98.158,138.09c-0.026,1.711,0.636,4.347,1.837,5.566c1.201,1.219,2.84,2.895,4.551,2.895h34.859
					c4.259,0,8.406-2.35,11.835-4.875l163.108-120.621L736.615,2932.934z"/>
				
					<linearGradient id="SVGID_00000034072013120968414610000000331647633475326354_" gradientUnits="userSpaceOnUse" x1="879.5098" y1="3088.0713" x2="1254.9615" y2="3088.0713">
					<stop  offset="0" style="stop-color:#AB316D"/>
					<stop  offset="1" style="stop-color:#792D3D"/>
				</linearGradient>
				<path style="fill:url(#SVGID_00000034072013120968414610000000331647633475326354_);" d="M1187.963,3033.712
					c-12.385-1.857-209.341,1.467-281.476,2.758c-14.611,0.262-26.977,12.178-26.977,26.79v10.952
					c0,13.567,10.789,24.995,24.26,26.614l351.192,42.155L1187.963,3033.712z"/>
				<g>
					
						<linearGradient id="SVGID_00000070090815858986188770000002937051790073179014_" gradientUnits="userSpaceOnUse" x1="1884.3152" y1="3070.6838" x2="2252.9475" y2="3070.6838">
						<stop  offset="0" style="stop-color:#444B8C"/>
						<stop  offset="0.9964" style="stop-color:#26264F"/>
					</linearGradient>
					
						<circle style="fill:url(#SVGID_00000070090815858986188770000002937051790073179014_);" cx="2068.631" cy="3070.684" r="184.316"/>
					<circle style="fill:#FFFFFF;" cx="2068.631" cy="3070.684" r="127.189"/>
				</g>
				
					<linearGradient id="SVGID_00000015324463034095820360000002773951699486779819_" gradientUnits="userSpaceOnUse" x1="2007.1926" y1="3074.666" x2="2126.6567" y2="3074.666">
					<stop  offset="0" style="stop-color:#444B8C"/>
					<stop  offset="0.9964" style="stop-color:#26264F"/>
				</linearGradient>
				
					<circle style="opacity:0.6;fill:url(#SVGID_00000015324463034095820360000002773951699486779819_);" cx="2066.925" cy="3074.666" r="59.732"/>
				
					<linearGradient id="SVGID_00000089547292434125275030000013635620181649924002_" gradientUnits="userSpaceOnUse" x1="3783.4431" y1="-170.9343" x2="4094.0518" y2="-170.9343" gradientTransform="matrix(0.6844 0.7291 -0.7291 0.6844 -828.4741 232.3055)">
					<stop  offset="0" style="stop-color:#AB316D"/>
					<stop  offset="1" style="stop-color:#792D3D"/>
				</linearGradient>
				<path style="fill:url(#SVGID_00000089547292434125275030000013635620181649924002_);" d="M2096.883,3101.456
					c-16.493,15.482-42.414,14.664-57.896-1.829l-156.521-166.732c-15.483-16.492-14.664-42.414,1.829-57.896l2.489-2.336
					c16.493-15.482,42.414-14.664,57.896,1.829l156.521,166.732c15.482,16.493,14.664,42.414-1.829,57.896L2096.883,3101.456z"/>
				
					<linearGradient id="SVGID_00000041984807372921007440000004871506982454328713_" gradientUnits="userSpaceOnUse" x1="1845.631" y1="2916.0002" x2="2243.8386" y2="2916.0002">
					<stop  offset="0" style="stop-color:#FF9085"/>
					<stop  offset="1" style="stop-color:#FB6FBB"/>
				</linearGradient>
				<path style="fill:url(#SVGID_00000041984807372921007440000004871506982454328713_);" d="M2243.314,2935.682
					c-23.05-75.489-104.201-140.233-205.402-140.233c-108.086,0-182.041,107.294-182.041,107.294l-10.24,133.807l89.821-11.977
					c19.345-2.579,37.523-10.723,52.326-23.44l47.756-40.082c6.673-5.733,15.181-7.938,23.979-7.938h172.302
					c3.812,0,7.396-2.755,9.663-5.818C2243.746,2944.233,2244.428,2939.327,2243.314,2935.682z"/>
				
					<linearGradient id="SVGID_00000182509842954427544200000003917645015711320964_" gradientUnits="userSpaceOnUse" x1="607.4308" y1="2783.5044" x2="2031.1008" y2="2783.5044">
					<stop  offset="0" style="stop-color:#FF9085"/>
					<stop  offset="1" style="stop-color:#FB6FBB"/>
				</linearGradient>
				<path style="fill:url(#SVGID_00000182509842954427544200000003917645015711320964_);" d="M2031.085,2728.504
					c1.707,45.226-139.944,303.935-160.423,312.468c-20.48,8.533-81.918,101.699-192.849,101.699h-403.175
					c-23.62,0-45.737-10.531-58.435-30.43c-32.323-50.516-98.097-143.366-147.658-153.264
					c-57.07-11.401-340.644-42.721-432.221-52.791c-17.135-1.912-29.798-16.106-28.843-33.309
					c3.107-55.056,26.658-165.484,164.11-197.077h634.764c9.489,0,13.741,6.625,13.741,16.114v21.025
					c0,12.493-3.031,24.508-11.564,33.655c-34.098,36.556-118.709,135.301-81.436,169.365
					c46.079,42.086,72.107,125.711,174.505,125.711c64.34,0,135.652-10.787,183.404-33.211
					c28.263-13.243,48.439-30.549,54.139-52.121c15.36-58.026-39.199-405.7-44.319-461.405
					c-2.833-30.89,22.656-51.985,45.936-64.648c0.033-0.033,0.047-0.033,0.047-0.033c19.593-10.65,43.799-6.622,58.919,9.693
					C1862.019,2507.256,2029.686,2691.675,2031.085,2728.504z"/>
				
					<linearGradient id="SVGID_00000141452918074448960850000013647536810052164764_" gradientUnits="userSpaceOnUse" x1="1685.2194" y1="2727.1389" x2="1830.7271" y2="2727.1389">
					<stop  offset="0" style="stop-color:#FF9085"/>
					<stop  offset="1" style="stop-color:#FB6FBB"/>
				</linearGradient>
				<path style="opacity:0.5;fill:url(#SVGID_00000141452918074448960850000013647536810052164764_);" d="M1808.097,2915.994
					c-66.012,67.071-118.338,107.996-118.338,107.996l-4.54-15.53c28.263-13.243,48.332-30.549,54.032-52.121
					c15.36-58.026-39.252-405.7-44.372-461.405c-2.833-30.89,22.629-51.985,45.909-64.648c-1.503,1.332-36.829,33.621,0.033,122.707
					C1778.504,2644.026,1874.075,2848.924,1808.097,2915.994z"/>
				
					<linearGradient id="SVGID_00000065773048583251175300000016856205199071299459_" gradientUnits="userSpaceOnUse" x1="1384.9937" y1="3014.5442" x2="1700.9209" y2="3014.5442">
					<stop  offset="0" style="stop-color:#AB316D"/>
					<stop  offset="1" style="stop-color:#792D3D"/>
				</linearGradient>
				<path style="fill:url(#SVGID_00000065773048583251175300000016856205199071299459_);" d="M1700.921,3014.544
					c0,14.54-11.787,26.327-26.327,26.327h-263.273c-14.54,0-26.327-11.787-26.327-26.327l0,0c0-14.54,11.787-26.327,26.327-26.327
					h263.273C1689.134,2988.217,1700.921,3000.004,1700.921,3014.544L1700.921,3014.544z"/>
				
					<linearGradient id="SVGID_00000047028482935572930950000011174065219898766509_" gradientUnits="userSpaceOnUse" x1="595.0426" y1="2892.2275" x2="1206.801" y2="2892.2275">
					<stop  offset="0" style="stop-color:#FF9085"/>
					<stop  offset="1" style="stop-color:#FB6FBB"/>
				</linearGradient>
				<path style="fill:url(#SVGID_00000047028482935572930950000011174065219898766509_);" d="M1204.255,3038.449
					c0,0,35.844-278.402-161.433-292.444h-281.47c0,0-172.939,64.103-166.112,214.287
					C977.525,3003.527,1204.255,3038.449,1204.255,3038.449z"/>
				
					<linearGradient id="SVGID_00000054946607837011147910000001525157666895627669_" gradientUnits="userSpaceOnUse" x1="595.0424" y1="2887.8801" x2="1206.8003" y2="2887.8801">
					<stop  offset="0" style="stop-color:#FF9085"/>
					<stop  offset="1" style="stop-color:#FB6FBB"/>
				</linearGradient>
				<path style="opacity:0.3;fill:url(#SVGID_00000054946607837011147910000001525157666895627669_);" d="M603.755,2963.139
					c34.219-104.878,157.597-150.437,157.597-150.437h281.471c126.961,14.041,157.361,130.398,162.907,213.542
					c4.026-59.672,5.274-266.197-162.907-276.728H761.352c0,0-172.939,63.662-166.112,213.846
					C598.096,2963.685,600.916,2962.816,603.755,2963.139z"/>
				
					<linearGradient id="SVGID_00000155850107983319377400000009647585134440769467_" gradientUnits="userSpaceOnUse" x1="649.7235" y1="1310.764" x2="733.8829" y2="2579.1504">
					<stop  offset="0" style="stop-color:#FF9085"/>
					<stop  offset="1" style="stop-color:#FB6FBB"/>
				</linearGradient>
				<path style="fill:url(#SVGID_00000155850107983319377400000009647585134440769467_);" d="M1016.412,2196.642
					c0-35.865-29.075-64.939-64.94-64.939H491.621c-35.865,0-64.94,29.074-64.94,64.939v393.157
					c0,35.865,29.075,64.939,64.94,64.939h459.851c35.865,0,64.94-29.074,64.94-64.939V2196.642z"/>
				
					<linearGradient id="SVGID_00000021078166590463548500000010500220622831549355_" gradientUnits="userSpaceOnUse" x1="712.3082" y1="2550.7393" x2="721.0763" y2="2682.8848">
					<stop  offset="0" style="stop-color:#AB316D"/>
					<stop  offset="1" style="stop-color:#792D3D"/>
				</linearGradient>
				<path style="fill:url(#SVGID_00000021078166590463548500000010500220622831549355_);" d="M981.309,2663.514
					c0,6.785-5.501,12.286-12.286,12.286H470.559c-6.785,0-12.286-5.5-12.286-12.286l0,0c0-6.785,5.501-12.286,12.286-12.286
					h498.463C975.808,2651.228,981.309,2656.729,981.309,2663.514L981.309,2663.514z"/>
				
					<linearGradient id="SVGID_00000013180303211098264310000003717581946148551816_" gradientUnits="userSpaceOnUse" x1="714.7676" y1="2134.8511" x2="722.7104" y2="2254.5598">
					<stop  offset="0" style="stop-color:#FF9085"/>
					<stop  offset="1" style="stop-color:#FB6FBB"/>
				</linearGradient>
				<path style="opacity:0.5;fill:url(#SVGID_00000013180303211098264310000003717581946148551816_);" d="M1016.412,2237.012
					c0,3.877-3.143,7.021-7.021,7.021h-575.69c-3.877,0-7.021-3.143-7.021-7.021l0,0c0-3.877,3.143-7.021,7.021-7.021h575.69
					C1013.268,2229.991,1016.412,2233.135,1016.412,2237.012L1016.412,2237.012z"/>
				
					<linearGradient id="SVGID_00000163057329977536393340000015502880761809083786_" gradientUnits="userSpaceOnUse" x1="1936.0931" y1="2506.156" x2="1950.5109" y2="2723.4487">
					<stop  offset="0.0036" style="stop-color:#F36F56"/>
					<stop  offset="1" style="stop-color:#FFC444"/>
				</linearGradient>
				<path style="fill:url(#SVGID_00000163057329977536393340000015502880761809083786_);" d="M1971.214,2716.168
					c0,12.601-10.216,22.817-22.817,22.817l0,0c-12.602,0-22.817-10.216-22.817-22.817v-49.144
					c0-12.602,10.215-22.817,22.817-22.817l0,0c12.601,0,22.817,10.216,22.817,22.817V2716.168z"/>
				
					<linearGradient id="SVGID_00000168115692598736966340000008632462280901377200_" gradientUnits="userSpaceOnUse" x1="1813.2507" y1="2303.769" x2="1878.224" y2="2303.769">
					<stop  offset="0.0036" style="stop-color:#F36F56"/>
					<stop  offset="1" style="stop-color:#FFC444"/>
				</linearGradient>
				<path style="fill:url(#SVGID_00000168115692598736966340000008632462280901377200_);" d="M1813.251,2202.032v202.719
					c3.51,0.699,10.105,0.756,14.283,0.756h1.794c37.014-10.531,48.896-52.819,48.896-100.025
					C1878.224,2252.794,1869.416,2209.401,1813.251,2202.032z"/>
				<path style="fill:#FFFFFF;" d="M1820.271,2416.037c0,5.816-4.715,10.531-10.531,10.531l0,0c-5.816,0-10.531-4.715-10.531-10.531
					v-221.149c0-5.816,4.715-10.531,10.531-10.531l0,0c5.816,0,10.531,4.715,10.531,10.531V2416.037z"/>
				<g>
					
						<linearGradient id="SVGID_00000052787417303685929030000016087886223920774315_" gradientUnits="userSpaceOnUse" x1="1721.9828" y1="2314.2385" x2="1767.6167" y2="2314.2385">
						<stop  offset="0" style="stop-color:#AB316D"/>
						<stop  offset="1" style="stop-color:#792D3D"/>
					</linearGradient>
					<path style="fill:url(#SVGID_00000052787417303685929030000016087886223920774315_);" d="M1767.617,2323.014
						c0,12.601-10.215,22.817-22.817,22.817l0,0c-12.601,0-22.817-10.216-22.817-22.817v-17.552
						c0-12.602,10.215-22.817,22.817-22.817l0,0c12.602,0,22.817,10.216,22.817,22.817V2323.014z"/>
					
						<linearGradient id="SVGID_00000011018370179341557310000017668912955461869727_" gradientUnits="userSpaceOnUse" x1="1351.2434" y1="2822.5684" x2="1556.0291" y2="2822.5684" gradientTransform="matrix(0.7019 -0.1685 0.2334 0.9724 0.8184 -169.5438)">
						<stop  offset="0" style="stop-color:#AB316D"/>
						<stop  offset="1" style="stop-color:#792D3D"/>
					</linearGradient>
					<path style="fill:url(#SVGID_00000011018370179341557310000017668912955461869727_);" d="M1751.783,2312.934
						c3.08,12.831-1.932,25.035-11.194,27.258l-110.201,26.45c-9.262,2.223-19.266-6.377-22.346-19.208l0,0
						c-3.08-12.831,1.932-25.035,11.193-27.258l110.201-26.45C1738.699,2291.503,1748.704,2300.103,1751.783,2312.934
						L1751.783,2312.934z"/>
				</g>
				<g>
					
						<linearGradient id="SVGID_00000045606423079389008160000000289814844086246562_" gradientUnits="userSpaceOnUse" x1="1642.4211" y1="2139.7231" x2="1704.1023" y2="2124.9187">
						<stop  offset="0" style="stop-color:#AB316D"/>
						<stop  offset="1" style="stop-color:#792D3D"/>
					</linearGradient>
					
						<ellipse style="fill:url(#SVGID_00000045606423079389008160000000289814844086246562_);" cx="1673.262" cy="2132.321" rx="29.582" ry="57.172"/>
					<g>
						
							<linearGradient id="SVGID_00000050636397469261658620000013717804323082147992_" gradientUnits="userSpaceOnUse" x1="1693.1674" y1="2221.4717" x2="1743.4495" y2="2209.4033">
							<stop  offset="0" style="stop-color:#AB316D"/>
							<stop  offset="1" style="stop-color:#792D3D"/>
						</linearGradient>
						<path style="fill:url(#SVGID_00000050636397469261658620000013717804323082147992_);" d="M1744.8,2268.567
							c-1.885,0-1.755-1.528-1.755-3.413v-41.186c-7.021-6.933-53.214-47.231-60.679-53.474c-1.447-1.21-3.013-3.362-1.803-4.808
							c1.21-1.448,2.677-1.638,4.121-0.428c8.278,6.923,57.965,52.791,60.045,54.74c0.688,0.645,1.826,1.547,1.826,2.49v42.666
							C1746.555,2267.039,1746.685,2268.567,1744.8,2268.567z"/>
					</g>
				</g>
			</g>
			<g>
				<g>
					<path style="fill:#FFFFFF;" d="M583.453,2493.408c14.091,25.939,55.257,45.49,103.878,45.49h56.257
						c48.621,0,89.787-19.55,103.878-45.49c1.091-2.008,0.491-5.231-1.615-6.935c-2.105-1.704-5.463-3.74-9.036-3.74H594.104
						c-3.573,0-6.93,2.036-9.035,3.74C582.964,2488.177,582.362,2491.4,583.453,2493.408z"/>
					<path style="fill:#FFFFFF;" d="M585.158,2373.376c14.091-42.337,55.257-73.179,103.878-73.179h56.257
						c48.62,0,89.787,30.842,103.878,73.179c1.091,3.278,0.491,5.361-1.615,8.141c-2.105,2.781-5.463,2.927-9.036,2.927H595.808
						c-3.573,0-6.93-0.145-9.035-2.926C584.668,2378.738,584.066,2376.654,585.158,2373.376z"/>
					<path style="fill:#FFFFFF;" d="M850.254,2414.282c0,7.401-5.818,12.286-12.995,12.286H599.627
						c-7.177,0-12.995-4.885-12.995-12.286l0,0c0-7.401,5.818-12.286,12.995-12.286h237.631
						C844.436,2401.996,850.254,2406.881,850.254,2414.282L850.254,2414.282z"/>
					<g>
						<path style="fill:#FFFFFF;" d="M807.65,2466.105c-12.245,0-18.49-6.265-24-11.792c-4.976-4.993-9.273-9.303-18.056-9.303
							c-8.781,0-13.078,4.311-18.053,9.303c-5.509,5.527-11.753,11.792-23.996,11.792c-12.243,0-18.488-6.265-23.996-11.792
							c-4.974-4.993-9.27-9.303-18.051-9.303c-8.781,0-13.077,4.311-18.051,9.303c-5.509,5.527-11.753,11.792-23.996,11.792
							c-12.243,0-18.488-6.265-23.996-11.792c-4.974-4.993-9.27-9.303-18.051-9.303c-2.354,0-4.262-1.968-4.262-4.395
							s1.908-4.395,4.262-4.395c12.243,0,18.487,6.266,23.996,11.793c4.974,4.992,9.27,9.303,18.051,9.303
							s13.077-4.311,18.051-9.303c5.51-5.527,11.754-11.793,23.996-11.793c12.243,0,18.487,6.266,23.996,11.793
							c4.975,4.992,9.271,9.303,18.052,9.303c8.781,0,13.078-4.311,18.053-9.303c5.509-5.527,11.753-11.793,23.996-11.793
							c12.245,0,18.489,6.266,23.999,11.793c4.976,4.992,9.274,9.303,18.056,9.303s13.079-4.311,18.056-9.303
							c5.51-5.527,11.754-11.793,24-11.793c2.354,0,4.262,1.968,4.262,4.395s-1.908,4.395-4.262,4.395
							c-8.783,0-13.08,4.311-18.056,9.303C826.139,2459.84,819.895,2466.105,807.65,2466.105z"/>
					</g>
				</g>
				<path style="fill:#FFFFFF;" d="M879.51,2577.511c0,5.816-4.715,10.531-10.531,10.531H563.583
					c-5.816,0-10.531-4.715-10.531-10.531l0,0c0-5.816,4.715-10.531,10.531-10.531h305.396
					C874.795,2566.98,879.51,2571.695,879.51,2577.511L879.51,2577.511z"/>
			</g>
		</g>
		<g>
			<g>
				
					<linearGradient id="SVGID_00000100349683101860289240000001508401731382412724_" gradientUnits="userSpaceOnUse" x1="2993.116" y1="1929.9547" x2="2606.6162" y2="4922.1924">
					<stop  offset="0" style="stop-color:#FFC444"/>
					<stop  offset="0.0985" style="stop-color:#FEBC46"/>
					<stop  offset="0.9964" style="stop-color:#F36F56"/>
				</linearGradient>
				<path style="fill:url(#SVGID_00000100349683101860289240000001508401731382412724_);" d="M2808.75,3189.976
					c150.108-19.286,340.429-69.96,416.868-212.847c18.185-33.994,36.431-100.028-9.465-124.895
					c-41.954-22.73-96.209,1.278-127.392,30.858c-22.926,21.748-40.818,70.288-66.579,85.638
					c-37.703,22.466-58.002-38.834-57.209-64.132c1.774-56.563,71.35-79.719,117.591-92.001
					c76.754-20.387,166.118-37.861,161.31-124.357c-4.809-86.496-89.142-138.376-154.02-100.539
					c-53.453,31.182-45.927,97.732-82.452,137.661c-32.448,35.472-43.739-22.104-41.573-50.331
					c4.707-61.315,58.618-105.663,98.286-146.75c44.849-46.454,94.399-139.917,46.593-201.341
					c-27.509-35.346-97.394-43.625-138.699-37.661c-202.183,29.192-68.115,290.842-104.876,320.034
					c-36.761,29.192-71.542-21.91-71.45-99.613c0.091-77.703-11.802-135.007-92.891-110.139
					c-81.09,24.867-96.526,227.828-3.934,305.826s-5.812,163.097-30.669,107.199c-17.945-40.361-33.721-146.06-85.586-157.653
					c-86.419-19.281-85.138,157.178-60.267,198.248c34.864,57.571,113.698,70.078,157.723,119.748
					c12.79,14.43,41.665,50.166,30.448,71.257c-15.644,29.415-59.29-2.053-75.325-15.686
					c-36.051-30.649-85.949-134.81-136.736-65.637C2435.738,3048.28,2540.614,3174.9,2808.75,3189.976z"/>
				<g style="opacity:0.8;">
					<path style="fill:#FFFFFF;" d="M2830.372,3174.263c-3.527,0-6.417-2.536-6.483-6.076
						c-0.059-3.065-4.236-310.623,130.138-676.581c1.238-3.362,4.969-5.013,8.326-3.781c3.364,1.234,5.089,4.998,3.854,8.361
						c-133.547,363.7-129.406,668.697-129.349,671.738c0.067,3.583-2.781,6.339-6.363,6.339
						C2830.454,3174.263,2830.412,3174.263,2830.372,3174.263z"/>
				</g>
			</g>
			
				<linearGradient id="SVGID_00000061462174270425664470000012405235485776740001_" gradientUnits="userSpaceOnUse" x1="2761.6978" y1="2382.7039" x2="2512.2073" y2="4314.23">
				<stop  offset="0" style="stop-color:#AA80F9"/>
				<stop  offset="0.9964" style="stop-color:#6165D7"/>
			</linearGradient>
			<path style="fill:url(#SVGID_00000061462174270425664470000012405235485776740001_);" d="M2885.578,3058.335
				c-24.332-20.704-76.029,11.674-97.487,23.992c-12.444,7.144-29.476,18.103-44.45,11.743c-15.727-6.68-14.62-23.189-5.11-34.888
				c17.027-20.945,49.7-26.7,73.443-36.909c25.505-10.965,48.926-25.895,61.502-51.637c10.029-20.525,12.319-50.865,1.03-71.08
				c-31.243-55.943-76.725-12.287-102.156,21.082c-12.34,16.192-39.978,44.084-60.928,24.992
				c-22.287-20.311-3.161-56.526,14.129-72.493c22.597-20.869,49.95-35.373,74.558-53.514c22.189-16.357,44.977-39.792,30.206-68.79
				c-11.412-22.402-40.134-34.801-64.659-32.902c-56.705,4.39-65.542,87.18-102.886,118.969
				c-13.202,11.239-43.218,20.175-58.968,9.146c-16.027-11.248-5.61-36.97,0.157-51.007c17.095-41.604,139.764-181.086,38.1-198.6
				c-25.588-4.408-60.851,3.647-80.957,19.915c-37.93,30.691-58.059,91.475-68.05,137.603
				c-15.715,72.558-14.824,153.149,2.718,225.311c38.772,159.482,129.896,210.708,129.896,210.708
				c39.41,12.972,88.692,19.368,129.547,10.72c48.025-10.166,105.462-45.717,129.212-90.071
				C2892.112,3096.275,2900.652,3071.16,2885.578,3058.335z"/>
		</g>
	</g>
</g>
</svg>
